<?xml version="1.0" encoding="UTF-8" standalone="no"?>
<!-- Created with Inkscape (http://www.inkscape.org/) -->

<svg
   width="210mm"
   height="297mm"
   viewBox="0 0 210 297"
   version="1.1"
   id="svg1265"
   inkscape:version="1.1.1 (3bf5ae0d25, 2021-09-20)"
   sodipodi:docname="fishing_light.svg"
   xmlns:inkscape="http://www.inkscape.org/namespaces/inkscape"
   xmlns:sodipodi="http://sodipodi.sourceforge.net/DTD/sodipodi-0.dtd"
   xmlns="http://www.w3.org/2000/svg"
   xmlns:svg="http://www.w3.org/2000/svg">
  <sodipodi:namedview
     id="namedview1267"
     pagecolor="#ffffff"
     bordercolor="#666666"
     borderopacity="1.0"
     inkscape:pageshadow="2"
     inkscape:pageopacity="0.0"
     inkscape:pagecheckerboard="0"
     inkscape:document-units="mm"
     showgrid="false"
     inkscape:zoom="0.27349187"
     inkscape:cx="389.40829"
     inkscape:cy="577.71371"
     inkscape:window-width="1368"
     inkscape:window-height="842"
     inkscape:window-x="-6"
     inkscape:window-y="-6"
     inkscape:window-maximized="1"
     inkscape:current-layer="layer1" />
  <defs
     id="defs1262" />
  <g
     inkscape:label="Réteg 1"
     inkscape:groupmode="layer"
     id="layer1">
    <g
       id="g1398"
       transform="matrix(0.36838458,0,0,0.36838458,15.733139,59.233061)"
       style="fill:#d6d6d6;fill-opacity:1">
      <g
         id="g1043"
         style="fill:#d6d6d6;fill-opacity:1;stroke:none;stroke-opacity:1">
        <path
           d="m 106.162,156.405 c 20.23,0 36.64,-16.407 36.64,-36.649 0,-20.234 -16.409,-36.641 -36.64,-36.641 -20.25,0 -36.643,16.406 -36.643,36.641 10e-4,20.242 16.393,36.649 36.643,36.649 z"
           id="path1037"
           style="fill:#d6d6d6;fill-opacity:1;stroke:none;stroke-opacity:1" />
        <path
           d="m 479.847,364.886 c -6.379,-6.378 -16.741,-6.362 -23.087,0.016 -5.328,5.325 -14.588,5.349 -19.962,-0.024 C 425.267,353.35 408.19,349.476 392.771,353 319.761,215.601 320.782,125.128 322.09,105.915 l 10.938,-8.291 c 3.57,-2.727 4.286,-7.846 1.561,-11.441 -2.726,-3.578 -7.845,-4.305 -11.45,-1.569 L 195.405,181.51 c -4.942,-4.806 -12.455,-6.297 -18.878,-2.894 l -41.474,21.958 -31.316,-24.437 c -3.73,-6.999 -9.142,-11.881 -17.221,-15.3 -2.239,-0.947 -9.721,-3.24 -16.997,-1.553 -10.933,2.535 -20.887,9.279 -25.097,20.545 0,0 -28.857,76.792 -38.047,101.554 -7.222,19.46 7.112,37.677 20.586,37.677 0.048,0 0.08,0 0.112,0 l 78.785,-0.374 26.485,66.777 c 3.826,9.607 13.027,15.467 22.768,15.467 3.013,0 6.059,-0.558 9.024,-1.73 12.583,-4.99 18.722,-19.23 13.744,-31.803 l -32.653,-82.316 c -3.702,-9.335 -12.726,-15.458 -22.771,-15.458 -0.032,0 -0.08,0 -0.124,0 l -41.89,0.198 20.427,-54.5 22.419,17.509 c 2.934,2.279 6.472,3.452 10.045,3.452 2.613,0 5.242,-0.622 7.651,-1.897 l 50.818,-26.908 c 3.457,-1.833 5.787,-4.839 7.192,-8.196 l 114.531,-86.869 c -0.924,29.937 4.034,116.016 71.337,243.091 -5.214,2.208 -10.093,5.277 -14.224,9.407 -5.243,5.247 -14.651,5.247 -19.898,0 -17.696,-17.699 -48.488,-17.691 -66.154,-0.023 -5.342,5.332 -14.639,5.316 -19.966,0 -6.375,-6.378 -16.709,-6.378 -23.088,0 -6.375,6.377 -6.375,16.71 0,23.087 18.226,18.241 47.9,18.258 66.143,0 5.327,-5.325 14.619,-5.333 19.977,0.024 8.817,8.827 20.555,13.689 33.038,13.689 12.486,0 24.22,-4.862 33.069,-13.721 5.327,-5.325 14.591,-5.349 19.982,0.024 18.21,18.217 47.864,18.225 66.122,-0.024 6.38,-6.378 6.365,-16.703 -0.015,-23.08 z"
           id="path1039"
           style="fill:#d6d6d6;fill-opacity:1;stroke:none;stroke-opacity:1" />
        <path
           d="M 87.025,330.166 H 11.606 C 5.199,330.166 0,335.365 0,341.774 v 48.217 c 0,6.411 5.199,11.608 11.606,11.608 h 75.419 c 6.412,0 11.61,-5.197 11.61,-11.608 v -48.217 c 0,-6.409 -5.198,-11.608 -11.61,-11.608 z"
           id="path1041"
           style="fill:#d6d6d6;fill-opacity:1;stroke:none;stroke-opacity:1" />
      </g>
      <g
         id="g1045"
         style="fill:#d6d6d6;fill-opacity:1" />
      <g
         id="g1047"
         style="fill:#d6d6d6;fill-opacity:1" />
      <g
         id="g1049"
         style="fill:#d6d6d6;fill-opacity:1" />
      <g
         id="g1051"
         style="fill:#d6d6d6;fill-opacity:1" />
      <g
         id="g1053"
         style="fill:#d6d6d6;fill-opacity:1" />
      <g
         id="g1055"
         style="fill:#d6d6d6;fill-opacity:1" />
      <g
         id="g1057"
         style="fill:#d6d6d6;fill-opacity:1" />
      <g
         id="g1059"
         style="fill:#d6d6d6;fill-opacity:1" />
      <g
         id="g1061"
         style="fill:#d6d6d6;fill-opacity:1" />
      <g
         id="g1063"
         style="fill:#d6d6d6;fill-opacity:1" />
      <g
         id="g1065"
         style="fill:#d6d6d6;fill-opacity:1" />
      <g
         id="g1067"
         style="fill:#d6d6d6;fill-opacity:1" />
      <g
         id="g1069"
         style="fill:#d6d6d6;fill-opacity:1" />
      <g
         id="g1071"
         style="fill:#d6d6d6;fill-opacity:1" />
      <g
         id="g1073"
         style="fill:#d6d6d6;fill-opacity:1" />
    </g>
  </g>
</svg>
