<?xml version="1.0" encoding="UTF-8" standalone="no"?>
<!-- Created with Inkscape (http://www.inkscape.org/) -->

<svg
   width="210mm"
   height="297mm"
   viewBox="0 0 210 297"
   version="1.1"
   id="svg5"
   sodipodi:docname="paintball_dark.svg"
   inkscape:version="1.1.1 (3bf5ae0d25, 2021-09-20)"
   xmlns:inkscape="http://www.inkscape.org/namespaces/inkscape"
   xmlns:sodipodi="http://sodipodi.sourceforge.net/DTD/sodipodi-0.dtd"
   xmlns="http://www.w3.org/2000/svg"
   xmlns:svg="http://www.w3.org/2000/svg">
  <sodipodi:namedview
     id="namedview840"
     pagecolor="#ffffff"
     bordercolor="#666666"
     borderopacity="1.0"
     inkscape:pageshadow="2"
     inkscape:pageopacity="0.0"
     inkscape:pagecheckerboard="0"
     inkscape:document-units="mm"
     showgrid="false"
     inkscape:zoom="0.52738496"
     inkscape:cx="397.24303"
     inkscape:cy="561.25984"
     inkscape:window-width="1368"
     inkscape:window-height="842"
     inkscape:window-x="-6"
     inkscape:window-y="-6"
     inkscape:window-maximized="1"
     inkscape:current-layer="svg5" />
  <defs
     id="defs2" />
  <g
     id="layer2"
     transform="matrix(0.6722223,0,0,0.67570324,53.468078,68.423622)"
     style="fill:#414141;fill-opacity:1.0">
    <circle
       style="fill:#414141;fill-opacity:1.0;stroke:none;stroke-width:2.21149;stroke-linecap:round;paint-order:stroke fill markers"
       id="path268"
       cx="45.589981"
       cy="52.482895"
       r="20.859726" />
    <path
       style="fill:#414141;fill-opacity:1.0;stroke:none;stroke-width:0.264583px;stroke-linecap:butt;stroke-linejoin:miter;stroke-opacity:1"
       d="m 21.035275,65.029783 h -5.814629 l -4.275462,1.453658 -3.8051618,2.907313 -2.3515045,3.035578 -1.4964116,3.292107 -0.9833564,2.265995 -0.042755,12.014049 0.042755,44.379297 0.2565277,4.66026 1.7956943,7.9096 3.7196522,14.66484 3.5913881,14.40831 1.581921,6.54145 -32.023213,-0.0855 -10.688655,0.0855 -2.137733,0.4703 -2.394257,1.3254 -1.539169,1.28264 -1.838446,2.05222 -1.026113,1.62467 -0.55581,2.13773 0.04275,2.90732 0.342038,3.37762 1.239885,2.65078 1.881203,2.18049 2.736297,1.71018 2.650786,0.9406 8.123378,0.0855 h 21.24904802 l 28.26080598,0.0428 2.69354,-0.25653 2.736297,-1.11162 2.308749,-1.58192 1.581923,-1.92396 1.154374,-1.79569 0.641318,-1.66743 0.25653,-2.22324 -0.171019,-3.07834 -0.940602,-4.36097 -5.130556,-21.80486 -3.591388,-14.92136 6.626968,-0.68407 24.626663,-2.47977 -6.156667,39.16323 -0.812337,5.90014 -0.08551,2.22324 0.342037,2.05222 1.154375,2.86456 1.92396,2.43702 2.009465,1.62467 2.223241,1.06887 1.923957,0.38479 2.223241,0.21377 2.137733,-0.34203 2.479767,-0.98336 2.608033,-1.75294 1.923957,-2.43701 1.325393,-2.82181 0.513056,-3.2066 0.342038,-2.95007 2.992824,-17.78592 3.121085,-19.70988 1.496412,-9.7053 1.410904,-8.67919 -0.384791,-2.69354 -1.197131,-3.24935 -1.58192,-2.00947 -2.223241,-2.05222 -2.821805,-1.4109 -1.667431,-0.42755 -4.531989,0.21377 -22.916478,2.35151 0.171019,-7.8241 -4.959538,-4.57474 -19.923654,-19.068564 28.218053,15.690944 2.479767,1.11162 4.018934,0.21378 1.068866,-0.29929 15.690948,-6.969 23.643306,-10.945183 3.121086,-1.710187 1.96672,-2.522522 1.15437,-2.992823 0.17102,-2.437014 -0.9406,-3.719653 -2.13773,-2.821805 -2.608037,-1.710184 -3.548634,-0.598565 -2.437013,0.04275 -2.779051,1.111621 -16.802568,7.78134 L 56.906405,91.195611 39.20599,80.806239 27.961524,73.87999 25.823793,71.998786 23.85708,69.476265 Z"
       id="path2692" />
    <path
       style="fill:#414141;fill-opacity:1.0;stroke:none;stroke-width:0.264583px;stroke-linecap:butt;stroke-linejoin:miter;stroke-opacity:1"
       d="m 71.393068,41.82609 3.098789,-1.708113 35.825023,0.181393 1.37555,0.272087 1.49649,0.695338 1.19417,0.725569 1.14882,1.088356 0.99766,1.315095 0.81627,1.34533 0.40813,1.783691 0.16627,1.617417 -0.13604,3.990636 -0.4686,1.813925 -0.58952,0.967425 -1.70812,2.312755 -1.39067,1.118587 -1.54184,0.831384 -1.16393,0.393017 -5.12434,0.120928 h -7.966155 l 0.07558,6.968495 -2.131362,0.04535 -2.584844,0.226743 -2.070899,0.256971 -2.040665,0.755804 -1.315096,0.680219 -1.647647,0.786035 -1.163937,0.589526 -3.461573,1.556951 -1.436023,0.680223 -3.960405,1.813925 -4.111561,1.87439 -7.845227,3.537154 -5.925489,2.766235 -2.872047,-4.867365 2.554611,-1.163937 1.723228,-0.68022 1.420908,-0.922078 2.297639,-1.753462 1.647648,-1.360443 1.436026,-1.662766 1.889503,-2.645307 5.865024,0.06047 13.090493,-0.0907 -0.04535,-7.195238 -11.775398,-0.136043 -3.12902,-0.967428 0.57441,-2.524379 0.181393,-1.904622 0.272087,-3.265064 -0.211624,-3.62785 -0.483714,-2.025549 -0.544177,-2.146478 -0.468598,-1.526719 z"
       id="path2762" />
    <path
       style="fill:#414141;fill-opacity:1.0;stroke:none;stroke-width:0.264583px;stroke-linecap:butt;stroke-linejoin:miter;stroke-opacity:1"
       d="m 172.47215,68.086739 0.0214,-0.919226 0.38479,-0.598564 0.4703,-0.598564 0.74821,-0.363416 2.41563,-0.06413 3.12109,0.04275 9.85494,-0.06413 1.00474,0.277905 0.79096,0.598564 0.68407,0.748207 0.29928,0.983356 -0.0427,10.838296 -0.42755,1.090245 -0.51305,0.534432 -0.76959,0.577188 -1.26126,0.128263 -15.071,-0.02138 -1.17576,-0.513056 -0.61994,-0.855094 -0.17101,-0.940601 v -0.342038 l -52.011,0.08551 0.14964,0.919223 0.10688,1.026113 0.0641,1.346769 -0.14964,1.368149 -0.51305,1.304015 -0.72683,1.496412 -0.70545,1.496412 -1.36815,1.475036 -1.62468,1.282637 -2.0736,1.068866 -1.83845,0.619943 -2.11635,0.08551 0.68408,-1.090243 0.72682,-1.410901 0.59857,-2.137732 0.32066,-2.885938 0.0855,-2.13773 -0.2138,-2.372879 -0.68407,-1.197131 -0.72683,-1.496412 -0.91922,-2.223241 -1.34678,-1.817071 -1.4109,-1.346769 -2.03084,-1.624676 -1.73156,-0.897848 -1.45366,-0.598564 -1.859827,-0.769583 14.258667,-0.02138 16.63155,0.04275 h 19.62437 z"
       id="path2830" />
  </g>
</svg>
